name analog
datacolumns 19
datarows 41
range 0.2265 0.2465
endheader
time	ground_force_vx	ground_force_vy	ground_force_vz	ground_force_px	ground_force_py	ground_force_pz	l_ground_force_vx	l_ground_force_vy	l_ground_force_vz	l_ground_force_px	l_ground_force_py	l_ground_force_pz	ground_torque_x	ground_torque_y	ground_torque_z	l_ground_torque_x	l_ground_torque_y	l_ground_torque_z
0.2265	-0.0	-0.0	-0.0	4.180017948150635	15.432270050048828	-321.5448303222656	-4.741675853729248	-15.72126007080078	-299.8254089355469	-0.0	-0.0	-0.0	-0.0	-0.0	-0.0	108219.3359375	6762.6884765625	-4554.107421875
0.227	-0.0	-0.0	-0.0	4.5881218910217285	15.228514671325684	-322.0508728027344	-4.54874849319458	-15.72126007080078	-297.9227905273437	-0.0	-0.0	-0.0	-0.0	-0.0	-0.0	108065.4453125	6828.90966796875	-4626.62646484375
0.2275	-0.0	-0.0	-0.0	4.193524360656738	15.19063663482666	-321.5461730957031	-4.802670478820801	-15.584001541137695	-298.2238464355469	-0.0	-0.0	-0.0	-0.0	-0.0	-0.0	108021.6171875	7007.42138671875	-4584.7548828125
0.228	-0.0	-0.0	-0.0	4.0531415939331055	14.783783912658691	-322.9045104980469	-5.172221660614014	-15.669804573059082	-298.7189636230469	-0.0	-0.0	-0.0	-0.0	-0.0	-0.0	107949.78125	6886.8837890625	-4495.18359375
0.2285	-0.0	-0.0	-0.0	4.535246849060059	15.242823600769045	-322.30535888671875	-5.08314847946167	-15.78665542602539	-299.82354736328125	-0.0	-0.0	-0.0	-0.0	-0.0	-0.0	108081.5078125	6775.74609375	-4622.15771484375
0.229	-0.0	-0.0	-0.0	4.739361763000488	15.35640811920166	-321.8498840332031	-4.44799280166626	-15.165003776550291	-298.9718017578125	-0.0	-0.0	-0.0	-0.0	-0.0	-0.0	108319.8046875	6568.7890625	-4486.28564453125
0.2295	-0.0	-0.0	-0.0	4.84128475189209	15.343476295471191	-322.04840087890625	-4.95529317855835	-15.292107582092283	-298.9722595214844	-0.0	-0.0	-0.0	-0.0	-0.0	-0.0	108326.78125	6740.8349609375	-4533.07666015625
0.23	-0.0	-0.0	-0.0	5.0429205894470215	15.1784029006958	-321.289794921875	-4.676509857177734	-15.380498886108398	-297.97491455078125	-0.0	-0.0	-0.0	-0.0	-0.0	-0.0	108170.3046875	6689.6669921875	-4452.41650390625
0.2305	-0.0	-0.0	-0.0	4.969453811645508	15.406404495239258	-322.1522216796875	-4.904331207275391	-15.36797332763672	-299.3719482421875	-0.0	-0.0	-0.0	-0.0	-0.0	-0.0	108283.9453125	6669.17431640625	-4482.3154296875
0.231	-0.0	-0.0	-0.0	4.384555339813232	15.326961517333984	-323.3555603027344	-4.498996734619141	-15.456295013427734	-298.8238220214844	-0.0	-0.0	-0.0	-0.0	-0.0	-0.0	108448.765625	6732.9755859375	-4469.46337890625
0.2315	-0.0	-0.0	-0.0	5.111557483673096	15.254566192626951	-321.4988708496094	-4.980132579803467	-15.54461669921875	-299.722412109375	-0.0	-0.0	-0.0	-0.0	-0.0	-0.0	108350.59375	6382.55810546875	-4499.53076171875
0.232	-0.0	-0.0	-0.0	4.906578063964844	14.911421775817873	-322.80645751953125	-5.018158912658691	-15.317838668823242	-299.3236083984375	-0.0	-0.0	-0.0	-0.0	-0.0	-0.0	108299.7109375	6546.5234375	-4419.11376953125
0.2325	-0.0	-0.0	-0.0	5.477422714233398	15.762685775756836	-321.9592590332031	-4.5499653816223145	-15.671341896057127	-297.8314208984375	-0.0	-0.0	-0.0	-0.0	-0.0	-0.0	108374.4296875	6580.46484375	-4524.3173828125
0.233	-0.0	-0.0	-0.0	5.169299602508545	15.227865219116213	-323.212890625	-4.740359783172607	-15.746938705444336	-301.0640869140625	-0.0	-0.0	-0.0	-0.0	-0.0	-0.0	108005.0234375	6637.412109375	-4401.96142578125
0.2335	-0.0	-0.0	-0.0	5.152517318725586	15.570837020874023	-323.97296142578125	-4.701671600341797	-15.947535514831545	-300.31365966796875	-0.0	-0.0	-0.0	-0.0	-0.0	-0.0	108223.4375	6638.14892578125	-4465.66357421875
0.234	-0.0	-0.0	-0.0	4.596263408660889	15.530012130737305	-324.3881530761719	-4.816429138183594	-15.796615600585938	-300.5170593261719	-0.0	-0.0	-0.0	-0.0	-0.0	-0.0	108289.375	6624.69384765625	-4469.28857421875
0.23450000000000001	-0.0	-0.0	-0.0	5.133372783660889	14.788116455078123	-324.7879638671875	-4.537311553955078	-16.035533905029297	-298.8223876953125	-0.0	-0.0	-0.0	-0.0	-0.0	-0.0	108347.9375	6788.54345703125	-4410.6806640625
0.23500000000000001	-0.0	-0.0	-0.0	4.776311874389648	15.378540992736816	-323.9482727050781	-4.550518035888672	-15.534753799438477	-299.67547607421875	-0.0	-0.0	-0.0	-0.0	-0.0	-0.0	108301.1484375	6466.85546875	-4473.27685546875
0.23550000000000001	-0.0	-0.0	-0.0	4.652670860290527	15.255010604858398	-322.45330810546875	-4.701671600341797	-15.770236015319824	-299.3785095214844	-0.0	-0.0	-0.0	-0.0	-0.0	-0.0	108137.96875	6645.8291015625	-4452.55029296875
0.23600000000000002	-0.0	-0.0	-0.0	4.611387729644775	15.186230659484863	-322.3182983398437	-4.239429473876953	-15.646108627319336	-300.76043701171875	-0.0	-0.0	-0.0	-0.0	-0.0	-0.0	108195.375	6895.611328125	-4519.0478515625
0.23650000000000002	-0.0	-0.0	-0.0	4.865021228790283	15.19977855682373	-322.80645751953125	-4.967803955078125	-16.061304092407227	-299.6244201660156	-0.0	-0.0	-0.0	-0.0	-0.0	-0.0	108425.3046875	6624.99951171875	-4427.5546875
0.23700000000000002	-0.0	-0.0	-0.0	4.583383560180664	15.377924919128418	-322.69647216796875	-4.519591808319092	-15.831503868103027	-298.47216796875	-0.0	-0.0	-0.0	-0.0	-0.0	-0.0	108345.71875	6547.6357421875	-4409.33642578125
0.23750000000000002	-0.0	-0.0	-0.0	4.4605255126953125	15.363815307617188	-323.2148742675781	-4.545980930328369	-15.333000183105469	-299.3283996582031	-0.0	-0.0	-0.0	-0.0	-0.0	-0.0	108140.5546875	6598.9873046875	-4347.0361328125
0.23800000000000002	-0.0	-0.0	-0.0	4.206912517547607	15.31132984161377	-322.3423156738281	-4.564647197723389	-15.456295013427734	-298.4186706542969	-0.0	-0.0	-0.0	-0.0	-0.0	-0.0	108258.7109375	6382.83251953125	-4489.08935546875
0.23850000000000002	-0.0	-0.0	-0.0	4.704909801483154	15.391469955444336	-321.9139099121094	-4.572449207305908	-15.490838050842283	-299.22296142578125	-0.0	-0.0	-0.0	-0.0	-0.0	-0.0	108337.2109375	6490.22021484375	-4381.34716796875
0.23900000000000002	-0.0	-0.0	-0.0	4.456095218658447	14.927128791809082	-322.2679138183594	-4.770482063293457	-15.347235679626465	-299.9212646484375	-0.0	-0.0	-0.0	-0.0	-0.0	-0.0	108207.7890625	6546.7119140625	-4518.64990234375
0.23950000000000002	-0.0	-0.0	-0.0	4.9107770919799805	15.162128448486328	-323.5855712890625	-4.4149017333984375	-15.782471656799316	-299.9471740722656	-0.0	-0.0	-0.0	-0.0	-0.0	-0.0	108531.5546875	6504.01171875	-4486.4189453125
0.24	-0.0	-0.0	-0.0	4.606630802154541	15.358850479125977	-322.8627624511719	-5.029175758361816	-15.39519214630127	-299.0615539550781	-0.0	-0.0	-0.0	-0.0	-0.0	-0.0	108027.140625	6456.39453125	-4356.720703125
0.2405	-0.0	-0.0	-0.0	4.175166130065918	15.376708030700684	-322.9898681640625	-4.77664041519165	-15.707578659057615	-297.3984680175781	-0.0	-0.0	-0.0	-0.0	-0.0	-0.0	108256.59375	6724.89501953125	-4491.251953125
0.241	-0.0	-0.0	-0.0	4.4605255126953125	15.494367599487305	-322.49737548828125	-4.776602268218994	-15.36797332763672	-299.6805419921875	-0.0	-0.0	-0.0	-0.0	-0.0	-0.0	108208.765625	6596.11669921875	-4575.5625
0.2415	-0.0	-0.0	-0.0	4.877790927886963	15.091798782348633	-321.564697265625	-4.634956359863281	-15.660493850708008	-299.9980773925781	-0.0	-0.0	-0.0	-0.0	-0.0	-0.0	108371.7109375	6671.4287109375	-4470.76220703125
0.242	-0.0	-0.0	-0.0	4.518380165100098	15.511116027832031	-324.7537536621094	-4.565974235534668	-15.795734405517578	-298.9832458496094	-0.0	-0.0	-0.0	-0.0	-0.0	-0.0	108475.2890625	6727.716796875	-4491.18017578125
0.2425	-0.0	-0.0	-0.0	4.7136549949646	15.477516174316406	-322.5019836425781	-4.715618133544922	-15.754040718078612	-299.8663635253906	-0.0	-0.0	-0.0	-0.0	-0.0	-0.0	108351.8984375	6679.7353515625	-4595.95458984375
0.243	-0.0	-0.0	-0.0	4.251194000244141	15.419559478759766	-325.2856750488281	-5.023879051208496	-15.628360748291016	-299.57208251953125	-0.0	-0.0	-0.0	-0.0	-0.0	-0.0	108087.625	6653.42138671875	-4507.10107421875
0.2435	-0.0	-0.0	-0.0	4.771997451782227	15.628549575805664	-324.809814453125	-4.524250030517578	-15.72126007080078	-299.7552795410156	-0.0	-0.0	-0.0	-0.0	-0.0	-0.0	108561.6875	6883.24072265625	-4467.6787109375
0.244	-0.0	-0.0	-0.0	4.758690357208252	15.24249267578125	-324.5143127441406	-4.907318115234375	-15.54461669921875	-299.86572265625	-0.0	-0.0	-0.0	-0.0	-0.0	-0.0	108551.75	6706.15185546875	-4556.82373046875
0.2445	-0.0	-0.0	-0.0	4.624204635620117	15.598577499389648	-324.5140075683594	-4.580990314483643	-15.753090858459473	-299.22296142578125	-0.0	-0.0	-0.0	-0.0	-0.0	-0.0	108417.21875	6901.1005859375	-4535.16650390625
0.245	-0.0	-0.0	-0.0	4.773026943206787	15.226531982421877	-323.6319580078125	-4.850647449493408	-15.883743286132812	-300.33966064453125	-0.0	-0.0	-0.0	-0.0	-0.0	-0.0	108478.1328125	6944.59619140625	-4625.5625
0.2455	-0.0	-0.0	-0.0	4.430349349975586	15.434370994567873	-324.5723876953125	-4.612960815429688	-15.54152011871338	-299.042236328125	-0.0	-0.0	-0.0	-0.0	-0.0	-0.0	108481.96875	6790.15087890625	-4500.81005859375
0.246	-0.0	-0.0	-0.0	4.297135353088379	15.122411727905272	-322.7474975585937	-4.802007675170898	-15.48483657836914	-298.8067321777344	-0.0	-0.0	-0.0	-0.0	-0.0	-0.0	108225.265625	6849.20556640625	-4734.4228515625
0.2465	-0.0	-0.0	-0.0	4.7426300048828125	15.657082557678224	-325.2768249511719	-4.804771423339844	-15.82627296447754	-299.7986145019531	-0.0	-0.0	-0.0	-0.0	-0.0	-0.0	108498.25	6799.0107421875	-4595.73974609375
